<svg width="183" height="27" viewBox="0 0 183 27" fill="none" xmlns="http://www.w3.org/2000/svg">
<g clip-path="url(#clip0_125_85)">
<path d="M0.00134277 20.5077L5.64505 17.2259C6.56638 19.4383 8.15227 20.6559 10.7343 20.6559C13.0581 20.6559 13.7579 19.8093 13.7579 18.9219C13.7579 17.4475 12.0648 17.0044 8.77872 16.0817C4.7223 14.9021 1.10751 12.8365 1.10751 8.00553C1.10751 3.17452 5.0581 0.00134277 10.0697 0.00134277C14.3491 0.00134277 17.8524 2.03025 19.664 5.90325L14.1318 9.14838C13.3148 7.23093 11.9942 6.26727 10.1064 6.26727C8.48242 6.26727 7.70782 7.04187 7.70782 7.96038C7.70782 9.10323 8.63057 9.72968 12.1339 10.7625C16.1169 11.9434 20.3582 13.4178 20.3582 18.84C20.3582 23.9673 16.3751 26.9176 10.548 26.9176C4.93959 26.9261 1.3643 24.3074 0.00134277 20.5077Z" fill="#17232D"/>
<path d="M22.6835 17.8892V0.554565H29.2852V17.2628C29.2852 19.1068 30.2079 20.5079 32.9 20.5079C35.592 20.5079 36.5148 19.1068 36.5148 17.2628V0.554565H43.1165V17.8892C43.1165 23.4214 38.8372 26.9191 32.9 26.9191C26.9628 26.9191 22.6835 23.4214 22.6835 17.8892Z" fill="#17232D"/>
<path d="M55.874 18.0374H53.5177V26.3732H46.916V0.553223H57.2426C62.4799 0.553223 66.5364 4.27948 66.5364 9.47875C66.5364 12.6519 64.8037 15.344 62.1484 16.8156L67.4591 26.3689H60.3777L55.874 18.0374ZM53.5177 12.4318H57.1692C58.7918 12.4685 59.9346 11.2875 59.9346 9.55493C59.9346 7.86182 58.7918 6.64137 57.1692 6.64137H53.5177V12.4318Z" fill="#17232D"/>
<path d="M67.3872 0.554565H74.6154L79.6312 18.3322L84.6838 0.554565H91.9133L83.5776 26.3745H75.7216L67.3872 0.554565Z" fill="#17232D"/>
<path d="M110.54 20.1764V26.3732H93.9437V0.553223H110.356V6.71332H100.545V10.2914H109.434V16.3768H100.545V20.175L110.54 20.1764Z" fill="#17232D"/>
<path d="M126.954 16.4515V26.3731H120.353V16.5248L111.647 0.554565H119.061L123.634 10.1079L128.245 0.554565H135.658L126.954 16.4515Z" fill="#17232D"/>
<path d="M150.3 26.9191H139.278L158.011 0H163.686L163.761 0.104409L183 26.9162L182.39 26.9247L163.428 0.500879H158.274L140.249 26.3632H150.053L159.927 12.2751L160.338 12.5601L150.3 26.9191Z" fill="black"/>
<path d="M155.058 5.11321L149.193 13.528L139.493 0.191895H151.514L155.058 5.11321Z" fill="#7877EE"/>
<path d="M170.886 26.919L158.654 26.8753L154.347 20.2397L159.996 12.1029L170.886 26.919Z" fill="#7877EE"/>
</g>
<defs>
<clipPath id="clip0_125_85">
<rect width="183" height="26.9247" fill="white"/>
</clipPath>
</defs>
</svg>
